<svg xmlns="http://www.w3.org/2000/svg" width="130" height="20" viewBox="0 0 130 20" fill="none"><path d="M10.0008 15.2167L4.12295 18.5069L5.43573 11.9L0.490234 7.32658L7.17943 6.53346L10.0008 0.416748L12.8222 6.53346L19.5113 7.32658L14.5659 11.9L15.8787 18.5069L10.0008 15.2167Z" fill="#FFEB35"></path><g clip-path="url(#clip0_178_763)"><path d="M37.2733 15.2167L31.3954 18.5069L32.7082 11.9L27.7627 7.32658L34.4519 6.53346L37.2733 0.416748L40.0946 6.53346L46.7838 7.32658L41.8384 11.9L43.1511 18.5069L37.2733 15.2167Z" fill="#FFEB35"></path></g><g clip-path="url(#clip1_178_763)"><path d="M64.5462 15.2167L58.6684 18.5069L59.9811 11.9L55.0356 7.32658L61.7248 6.53346L64.5462 0.416748L67.3676 6.53346L74.0567 7.32658L69.1113 11.9L70.4241 18.5069L64.5462 15.2167Z" fill="#FFEB35"></path></g><g clip-path="url(#clip2_178_763)"><path d="M91.8187 15.2167L85.9408 18.5069L87.2536 11.9L82.3081 7.32658L88.9973 6.53346L91.8187 0.416748L94.64 6.53346L101.329 7.32658L96.3838 11.9L97.6965 18.5069L91.8187 15.2167Z" fill="#FFEB35"></path></g><g clip-path="url(#clip3_178_763)"><path d="M119.092 15.2167L113.214 18.5069L114.527 11.9L109.581 7.32658L116.27 6.53346L119.092 0.416748L121.913 6.53346L128.602 7.32658L123.657 11.9L124.969 18.5069L119.092 15.2167Z" fill="#FFEB35"></path></g><defs><clipPath id="clip0_178_763"><rect width="20" height="20" fill="white" transform="translate(27.2729)"></rect></clipPath><clipPath id="clip1_178_763"><rect width="20" height="20" fill="white" transform="translate(54.5454)"></rect></clipPath><clipPath id="clip2_178_763"><rect width="20" height="20" fill="white" transform="translate(81.8184)"></rect></clipPath><clipPath id="clip3_178_763"><rect width="20" height="20" fill="white" transform="translate(109.091)"></rect></clipPath></defs></svg>