<svg xmlns="http://www.w3.org/2000/svg" width="47" height="43" viewBox="0 0 47 43" fill="none"><path d="M23.1039 14.7902C23.4773 14.7902 23.7798 14.4876 23.7798 14.1143V13.4679C23.7798 13.0946 23.4773 12.792 23.1039 12.792C22.7305 12.792 22.428 13.0946 22.428 13.4679V14.1143C22.428 14.4876 22.7306 14.7902 23.1039 14.7902Z" fill="#8E7FE2"></path><path d="M16.0887 12.792C15.7153 12.792 15.4127 13.0946 15.4127 13.4679V14.1143C15.4127 14.4876 15.7153 14.7902 16.0887 14.7902C16.462 14.7902 16.7646 14.4876 16.7646 14.1143V13.4679C16.7646 13.0946 16.462 12.792 16.0887 12.792Z" fill="#8E7FE2"></path><path d="M19.5958 19.7815H19.598C20.2826 19.781 20.9255 19.5137 21.4086 19.029C21.6721 18.7646 21.6714 18.3366 21.4069 18.0731C21.1423 17.8096 20.7143 17.8103 20.451 18.0748C20.2232 18.3035 19.9198 18.4295 19.5969 18.4298C19.5966 18.4298 19.5962 18.4298 19.5958 18.4298C19.272 18.4298 18.9674 18.3035 18.738 18.074C18.4741 17.8102 18.0461 17.8101 17.7822 18.074C17.5181 18.338 17.5181 18.766 17.7821 19.0299C18.2669 19.5146 18.9109 19.7815 19.5958 19.7815Z" fill="#8E7FE2"></path><path d="M45.0566 36.5997H43.8364L46.0916 25.6112C46.2399 24.8899 46.0662 24.1589 45.6151 23.6057C45.2076 23.1059 44.6362 22.8192 44.0473 22.8192H38.4398C38.0664 22.8192 37.7638 23.1219 37.7638 23.4952C37.7638 23.8685 38.0664 24.1711 38.4398 24.1711H44.0473C44.2227 24.1711 44.422 24.2818 44.5673 24.46C44.6809 24.5993 44.858 24.8988 44.7674 25.3393L42.4564 36.5998H26.988L27.4575 34.3127C27.4576 34.3117 27.4577 34.3108 27.4579 34.3098L29.3251 25.2098C29.4233 24.7307 29.8018 24.1713 30.5458 24.1713H35.2311C35.6045 24.1713 35.907 23.8686 35.907 23.4954C35.907 23.1221 35.6045 22.8194 35.2311 22.8194H30.5458C29.5512 22.8194 28.7073 23.3492 28.2662 24.1929L24.3852 22.9964V21.7061C26.0108 20.4446 27.3197 18.7112 27.9756 16.9434C29.6518 16.8639 31.2906 15.8862 31.2906 14.1013V13.3757C31.2906 12.2846 30.4006 11.3968 29.3066 11.3968H28.5218C28.8941 8.09467 28.8081 4.71419 25.6364 2.0182C23.7385 0.404881 20.3351 -0.371452 17.5435 0.17263C16.0457 0.464544 14.9059 1.11975 14.2912 2.03334C12.7815 2.36744 11.6032 3.15206 10.871 4.3153C10.1363 5.48241 9.86676 7.00957 10.0916 8.73159L10.4391 11.3968H9.65821C8.56427 11.3968 7.67429 12.2845 7.67429 13.3756V14.1012C7.67429 15.885 9.31096 16.8625 10.9915 16.9432C11.647 18.7108 12.955 20.4441 14.5796 21.7056V22.9963L9.23237 24.6451C7.68367 25.1211 6.51394 26.1848 5.82322 27.732H5.31276C4.55823 27.732 3.94295 28.3329 3.91637 29.0809H2.38253C1.4675 29.0809 0.72307 29.8243 0.72307 30.7379V33.1956C0.72307 34.1093 1.4675 34.8526 2.38253 34.8526H3.91384V35.569C3.91384 35.938 3.99829 36.2876 4.1488 36.5997H1.08726C0.487755 36.5997 0 37.0887 0 37.6896V41.5193C0 42.1188 0.487755 42.6065 1.08717 42.6065H19.987C20.3604 42.6065 20.663 42.3038 20.663 41.9305C20.663 41.5572 20.3604 41.2546 19.987 41.2546H1.35187V37.9517H44.7919V41.2546H23.1064C22.733 41.2546 22.4305 41.5572 22.4305 41.9305C22.4305 42.3038 22.733 42.6065 23.1064 42.6065H45.0566C45.656 42.6065 46.1437 42.1187 46.1437 41.5193V37.6896C46.1437 37.0887 45.656 36.5997 45.0566 36.5997ZM29.9387 13.3756V14.1012C29.9387 14.898 29.2059 15.3887 28.3535 15.5436C28.4065 15.2192 28.4343 14.8976 28.4343 14.5815V12.7486H29.3066C29.6552 12.7486 29.9387 13.0299 29.9387 13.3756ZM17.8022 1.49953C18.3134 1.39986 18.8525 1.35227 19.4 1.35227C21.4035 1.35227 23.5162 1.99008 24.7609 3.04815C27.145 5.07469 27.4726 7.57439 27.2753 10.2329C25.6164 8.64822 23.1998 8.77115 21.0153 8.88164C19.0657 8.9806 17.2238 9.07334 15.9301 8.11721C14.8893 7.16973 14.7956 4.2213 15.3274 2.93062C15.6965 2.24694 16.5736 1.739 17.8022 1.49953ZM13.7605 3.61052C13.6534 4.2815 13.6253 5.04071 13.6898 5.78496C13.7578 6.56986 13.9907 7.93849 14.7688 8.85388C14.4767 9.96701 13.4479 10.4295 12.1493 10.9041C12.0138 10.9537 11.8828 11.0016 11.7573 11.0496L11.4322 8.55683C11.1125 6.10761 11.9532 4.35973 13.7605 3.61052ZM9.02625 14.1012V13.3756C9.02625 13.0299 9.30978 12.7486 9.6583 12.7486H10.5331V14.5815C10.5331 14.8975 10.561 15.219 10.6139 15.5434C9.75861 15.3884 9.02625 14.8977 9.02625 14.1012ZM11.885 14.5815V12.4598C12.088 12.3659 12.3533 12.2688 12.6133 12.1738C13.708 11.7737 15.2748 11.2011 15.916 9.67844C17.4601 10.4154 19.2976 10.3223 21.0838 10.2318C23.6807 10.1001 25.9292 9.98792 27.0825 12.2339V14.5816C27.0825 17.3443 24.3899 20.7682 21.3206 21.9085C20.6319 22.1639 20.0482 22.2828 19.4838 22.2828C18.9175 22.2828 18.333 22.1638 17.6448 21.9087C14.5765 20.7686 11.885 17.3447 11.885 14.5815ZM17.1743 23.176C18.0182 23.489 18.7521 23.6346 19.4838 23.6346C20.2137 23.6346 20.9467 23.4889 21.7911 23.1759C22.2144 23.0186 22.6295 22.8242 23.0333 22.6003V24.0623C23.0333 25.4878 21.2471 26.2337 19.4825 26.2337C17.718 26.2337 15.9317 25.4878 15.9317 24.0623V22.6002C16.3356 22.8242 16.7509 23.0187 17.1743 23.176ZM9.63018 25.9371L14.6002 24.4046C14.7083 25.3731 15.2763 26.207 16.2293 26.7777C17.0993 27.2986 18.2547 27.5856 19.4825 27.5856C20.7104 27.5856 21.8657 27.2986 22.7357 26.7777C23.6888 26.207 24.2567 25.3731 24.3648 24.4045L27.8874 25.4905L26.2438 33.5007H21.2746C20.5568 33.5007 19.9729 34.0859 19.9729 34.8051V35.7273C19.9729 36.0368 20.0366 36.3316 20.1512 36.5997H11.8825C12.033 36.2876 12.1174 35.938 12.1174 35.569V29.1309C12.1174 28.3596 11.4899 27.732 10.7185 27.732H7.34245C7.87797 26.843 8.64367 26.2403 9.63018 25.9371ZM2.38253 33.5008C2.2158 33.5008 2.07494 33.3611 2.07494 33.1957V30.7379C2.07494 30.5726 2.2158 30.4329 2.38253 30.4329H3.91384V33.5008H2.38253ZM6.2989 36.5997C5.72922 36.5997 5.26571 36.1374 5.26571 35.5691V29.131C5.26571 29.106 5.2877 29.084 5.31276 29.084H10.7184C10.7435 29.084 10.7655 29.106 10.7655 29.131V35.5691C10.7655 36.1374 10.302 36.5997 9.73229 36.5997H6.2989ZM21.3247 35.7275V34.8527H25.9664L25.6291 36.4969L25.608 36.5997H22.1969C21.716 36.5997 21.3247 36.2085 21.3247 35.7275Z" fill="#8E7FE2"></path><path d="M34.0734 30.5761C34.04 31.1843 34.2499 31.7604 34.6646 32.1983C35.0904 32.6481 35.6763 32.8959 36.3143 32.8959C37.5802 32.8959 38.6624 31.8875 38.7264 30.65C38.7598 30.0415 38.5498 29.4652 38.135 29.027C37.7096 28.5776 37.1246 28.3301 36.4882 28.3301C35.2244 28.3301 34.1411 29.3377 34.0734 30.5761ZM35.4233 30.6499C35.4519 30.1252 35.9396 29.6819 36.488 29.6819C36.7494 29.6819 36.9856 29.7795 37.1532 29.9564C37.31 30.122 37.3893 30.3421 37.3765 30.578C37.3493 31.1016 36.8629 31.5439 36.3143 31.5439C36.0515 31.5439 35.8142 31.4462 35.6463 31.2689C35.4896 31.1035 35.4104 30.8837 35.4233 30.6499Z" fill="#8E7FE2"></path></svg>