<svg xmlns="http://www.w3.org/2000/svg" width="47" height="47" viewBox="0 0 47 47" fill="none"><g clip-path="url(#clip0_235_4046)"><path d="M44.798 25.3791H27.494C27.1462 25.3818 26.8127 25.5186 26.5632 25.761C26.3136 26.0034 26.1672 26.3327 26.1543 26.6804C25.165 26.3274 24.1223 26.1474 23.0719 26.1482V24.7969C24.5491 24.2186 25.8343 23.2372 26.7813 21.9645C27.7282 20.6918 28.2989 19.1788 28.4284 17.5977C29.0945 17.4312 29.6858 17.047 30.1087 16.5062C30.5315 15.9653 30.7616 15.2987 30.7626 14.6122V8.45971C30.7611 7.20563 30.3226 5.99127 29.5225 5.02557C28.7225 4.05986 27.6108 3.4032 26.3789 3.16855C26.6379 2.90775 26.8137 2.57603 26.8842 2.21532C26.9547 1.85461 26.9166 1.48111 26.7749 1.142C26.6332 0.802899 26.3941 0.513422 26.0879 0.310157C25.7817 0.106892 25.4221 -0.0010382 25.0546 7.52763e-06H17.6885C15.4456 0.00265347 13.2954 0.89479 11.7095 2.48072C10.1236 4.06665 9.23142 6.21687 9.22878 8.45971V14.6122C9.22969 15.2987 9.45982 15.9653 9.88267 16.5062C10.3055 17.047 10.8969 17.4312 11.5629 17.5977C11.6926 19.1787 12.2634 20.6916 13.2103 21.9643C14.1572 23.237 15.4423 24.2184 16.9194 24.7969V26.1482C15.7073 26.1476 14.507 26.3859 13.387 26.8494C12.267 27.313 11.2494 27.9928 10.3923 28.8499C9.53525 29.707 8.85549 30.7246 8.39191 31.8445C7.92834 32.9645 7.69004 34.1648 7.69065 35.3769H1.53814C1.1302 35.3769 0.738975 35.539 0.45052 35.8274C0.162065 36.1159 1.28713e-05 36.5071 1.28713e-05 36.9151V40.7604C-0.00215048 41.749 0.268431 42.7191 0.781987 43.5638C1.29554 44.4086 2.03217 45.0954 2.91082 45.5485C3.78948 46.0017 4.7761 46.2037 5.76215 46.1323C6.7482 46.061 7.69546 45.719 8.4997 45.144C8.78764 45.4588 9.13788 45.7102 9.52819 45.8823C9.9185 46.0544 10.3403 46.1435 10.7669 46.1438H44.6057C45.0136 46.1438 45.4049 45.9818 45.6933 45.6933C45.9818 45.4049 46.1438 45.0136 46.1438 44.6057V26.7404C46.1455 26.3815 46.0047 26.0366 45.7524 25.7814C45.5001 25.5262 45.1568 25.3815 44.798 25.3791ZM27.6863 26.9172H44.6057V40.7604H27.6863V26.9172ZM17.6885 1.53813H25.0546C25.1184 1.53732 25.1809 1.55555 25.2343 1.59049C25.2877 1.62543 25.3294 1.6755 25.3542 1.73428C25.379 1.79307 25.3856 1.85791 25.3734 1.92051C25.3611 1.98311 25.3304 2.04063 25.2853 2.08571L24.2917 3.07626H22.3029C22.0989 3.07626 21.9033 3.15729 21.759 3.30152C21.6148 3.44574 21.5338 3.64136 21.5338 3.84533C21.5338 4.04929 21.6148 4.24491 21.759 4.38914C21.9033 4.53336 22.0989 4.61439 22.3029 4.61439H25.3791C26.3986 4.61561 27.3759 5.02113 28.0968 5.74201C28.8177 6.46288 29.2232 7.44024 29.2244 8.45971V10.1393C28.8733 10.0086 28.495 9.96753 28.1239 10.0199C27.7529 10.0723 27.4008 10.2164 27.0995 10.4393C26.8446 10.0699 26.5159 9.75747 26.1342 9.52158C25.7524 9.2857 25.3259 9.13153 24.8815 9.06881C23.4821 8.97252 22.1369 8.48985 20.9954 7.67449C20.7203 7.42713 20.3634 7.29028 19.9934 7.29028C19.6234 7.29028 19.2664 7.42713 18.9913 7.67449C17.8503 8.48958 16.5056 8.97224 15.1067 9.06881C14.6625 9.13163 14.2361 9.28585 13.8545 9.52173C13.4729 9.75761 13.1443 10.07 12.8895 10.4393C12.5885 10.2168 12.2368 10.0729 11.8662 10.0205C11.4956 9.96815 11.1178 10.009 10.7669 10.1393V8.45971C10.7691 6.62468 11.4991 4.86545 12.7967 3.56789C14.0942 2.27033 15.8534 1.54037 17.6885 1.53813ZM13.0741 16.9194C13.0741 16.7154 12.9931 16.5198 12.8488 16.3756C12.7046 16.2314 12.509 16.1503 12.305 16.1503C11.8971 16.1503 11.5059 15.9883 11.2174 15.6998C10.929 15.4114 10.7669 15.0202 10.7669 14.6122V12.305C10.7669 12.1011 10.8479 11.9054 10.9922 11.7612C11.1364 11.617 11.332 11.536 11.536 11.536C11.7399 11.536 11.9355 11.617 12.0798 11.7612C12.224 11.9054 12.305 12.1011 12.305 12.305C12.305 12.509 12.3861 12.7046 12.5303 12.8488C12.6745 12.9931 12.8701 13.0741 13.0741 13.0741C13.2781 13.0741 13.4737 12.9931 13.6179 12.8488C13.7621 12.7046 13.8432 12.509 13.8432 12.305C13.8433 11.8899 13.9927 11.4887 14.2641 11.1746C14.5354 10.8605 14.9106 10.6544 15.3213 10.5939C17.0142 10.4673 18.6357 9.8603 19.9957 8.84424C21.3554 9.86017 22.9767 10.4671 24.6693 10.5939C25.0801 10.6542 25.4555 10.8602 25.727 11.1744C25.9985 11.4885 26.148 11.8898 26.1482 12.305C26.1482 12.509 26.2292 12.7046 26.3734 12.8488C26.5177 12.9931 26.7133 13.0741 26.9172 13.0741C27.1212 13.0741 27.3168 12.9931 27.461 12.8488C27.6053 12.7046 27.6863 12.509 27.6863 12.305C27.6863 12.1011 27.7673 11.9054 27.9116 11.7612C28.0558 11.617 28.2514 11.536 28.4554 11.536C28.6593 11.536 28.8549 11.617 28.9992 11.7612C29.1434 11.9054 29.2244 12.1011 29.2244 12.305V14.6122C29.2244 15.0202 29.0624 15.4114 28.7739 15.6998C28.4855 15.9883 28.0942 16.1503 27.6863 16.1503C27.4823 16.1503 27.2867 16.2314 27.1425 16.3756C26.9983 16.5198 26.9172 16.7154 26.9172 16.9194C26.9172 18.7551 26.188 20.5156 24.89 21.8137C23.5919 23.1117 21.8314 23.841 19.9957 23.841C18.16 23.841 16.3994 23.1117 15.1014 21.8137C13.8033 20.5156 13.0741 18.7551 13.0741 16.9194ZM19.9957 25.3791C20.5117 25.3782 21.0266 25.3301 21.5338 25.2353V26.9172C21.5338 27.3252 21.3717 27.7164 21.0833 28.0049C20.7948 28.2933 20.4036 28.4554 19.9957 28.4554C19.5877 28.4554 19.1965 28.2933 18.908 28.0049C18.6196 27.7164 18.4575 27.3252 18.4575 26.9172V25.2353C18.9648 25.3301 19.4796 25.3782 19.9957 25.3791ZM1.53814 40.7604V36.9151H9.22878V40.7604C9.22878 41.7802 8.82365 42.7583 8.10251 43.4794C7.38137 44.2006 6.4033 44.6057 5.38346 44.6057C4.36362 44.6057 3.38554 44.2006 2.66441 43.4794C1.94327 42.7583 1.53814 41.7802 1.53814 40.7604ZM10.7669 44.6057C10.5485 44.6053 10.3326 44.5584 10.1337 44.4681C9.93477 44.3778 9.75738 44.2462 9.61331 44.082C9.85916 43.7681 10.0694 43.4279 10.2401 43.0676H10.7669C11.5828 43.0676 12.3652 42.7435 12.9421 42.1666C13.5191 41.5896 13.8432 40.8072 13.8432 39.9913V38.4532C13.8432 37.6373 13.5191 36.8549 12.9421 36.2779C12.3652 35.701 11.5828 35.3769 10.7669 35.3769H9.22878C9.22807 34.3668 9.42651 33.3664 9.81275 32.433C10.199 31.4996 10.7655 30.6515 11.4797 29.9373C12.194 29.223 13.0421 28.6565 13.9755 28.2703C14.9089 27.884 15.9093 27.6856 16.9194 27.6863H17.0286C17.1965 28.3458 17.5793 28.9306 18.1166 29.3483C18.6539 29.766 19.3151 29.9928 19.9957 29.9928C20.6762 29.9928 21.3374 29.766 21.8747 29.3483C22.412 28.9306 22.7948 28.3458 22.9627 27.6863H23.0719C24.1316 27.6872 25.1795 27.9096 26.1482 28.3392V40.7604H21.5338C21.1259 40.7604 20.7346 40.9224 20.4462 41.2109C20.1577 41.4993 19.9957 41.8906 19.9957 42.2985V44.6057H10.7669ZM10.7669 40.7604V36.9151C11.1748 36.9151 11.5661 37.0771 11.8545 37.3656C12.143 37.654 12.305 38.0453 12.305 38.4532V39.9913C12.305 40.3993 12.143 40.7905 11.8545 41.0789C11.5661 41.3674 11.1748 41.5294 10.7669 41.5294H10.7054C10.7442 41.2749 10.7647 41.0179 10.7669 40.7604ZM21.5338 42.2985H26.1482V44.6057H21.5338V42.2985ZM44.6057 44.6057H27.6863V42.2985H44.6057V44.6057Z" fill="#8E7FE2"></path><path d="M36.146 29.9937C33.6012 29.9937 31.5316 31.7187 31.5316 33.839C31.5316 35.9593 33.6012 37.6843 36.146 37.6843C38.6908 37.6843 40.7604 35.9593 40.7604 33.839C40.7604 31.7187 38.6908 29.9937 36.146 29.9937ZM36.146 36.1462C34.4494 36.1462 33.0697 35.111 33.0697 33.839C33.0697 32.5669 34.4494 31.5318 36.146 31.5318C37.8426 31.5318 39.2223 32.5669 39.2223 33.839C39.2223 35.111 37.8426 36.1462 36.146 36.1462Z" fill="#8E7FE2"></path><path d="M5.38348 41.5294C5.17952 41.5294 4.9839 41.4484 4.83967 41.3041C4.69545 41.1599 4.61442 40.9643 4.61442 40.7603V39.2222C4.61442 39.0182 4.53339 38.8226 4.38917 38.6784C4.24494 38.5342 4.04933 38.4531 3.84536 38.4531C3.64139 38.4531 3.44578 38.5342 3.30155 38.6784C3.15732 38.8226 3.07629 39.0182 3.07629 39.2222V40.7603C3.07629 41.3722 3.31937 41.9591 3.75205 42.3917C4.18474 42.8244 4.77158 43.0675 5.38348 43.0675C5.58745 43.0675 5.78307 42.9865 5.92729 42.8423C6.07152 42.698 6.15255 42.5024 6.15255 42.2984C6.15255 42.0945 6.07152 41.8989 5.92729 41.7546C5.78307 41.6104 5.58745 41.5294 5.38348 41.5294Z" fill="#8E7FE2"></path><path d="M23.6872 19.688C23.7478 19.6072 23.7919 19.5153 23.817 19.4174C23.842 19.3196 23.8476 19.2178 23.8333 19.1178C23.819 19.0178 23.7852 18.9217 23.7337 18.8348C23.6823 18.7478 23.6142 18.6719 23.5334 18.6113C23.4526 18.5507 23.3607 18.5066 23.2628 18.4816C23.165 18.4565 23.0632 18.451 22.9632 18.4652C22.8632 18.4795 22.767 18.5134 22.6801 18.5648C22.5932 18.6163 22.5173 18.6843 22.4567 18.7651C22.1702 19.1472 21.7986 19.4573 21.3715 19.6709C20.9443 19.8845 20.4733 19.9956 19.9957 19.9956C19.5181 19.9956 19.0471 19.8845 18.62 19.6709C18.1928 19.4573 17.8212 19.1472 17.5347 18.7651C17.4741 18.6843 17.3982 18.6163 17.3113 18.5648C17.2244 18.5134 17.1282 18.4795 17.0282 18.4652C16.9282 18.451 16.8264 18.4565 16.7286 18.4816C16.6308 18.5066 16.5388 18.5507 16.458 18.6113C16.3772 18.6719 16.3092 18.7478 16.2577 18.8348C16.2062 18.9217 16.1724 19.0178 16.1581 19.1178C16.1438 19.2178 16.1494 19.3196 16.1745 19.4174C16.1995 19.5153 16.2436 19.6072 16.3042 19.688C16.734 20.2611 17.2914 20.7263 17.9321 21.0466C18.5728 21.367 19.2793 21.5338 19.9957 21.5338C20.7121 21.5338 21.4186 21.367 22.0593 21.0466C22.7001 20.7263 23.2574 20.2611 23.6872 19.688Z" fill="#8E7FE2"></path><path d="M1.53811 33.07C1.53811 33.2739 1.61913 33.4696 1.76336 33.6138C1.90759 33.758 2.1032 33.839 2.30717 33.839C2.51114 33.839 2.70675 33.758 2.85098 33.6138C2.99521 33.4696 3.07623 33.2739 3.07623 33.07C3.0688 32.8045 3.15974 32.5457 3.33156 32.3432C3.66545 31.8839 3.84529 31.3306 3.84529 30.7628C3.84529 30.1949 3.66545 29.6417 3.33156 29.1824C3.15974 28.9799 3.0688 28.721 3.07623 28.4556C3.07623 28.2516 2.99521 28.056 2.85098 27.9118C2.70675 27.7675 2.51114 27.6865 2.30717 27.6865C2.1032 27.6865 1.90759 27.7675 1.76336 27.9118C1.61913 28.056 1.53811 28.2516 1.53811 28.4556C1.52997 29.0247 1.71062 29.5805 2.05184 30.036C2.2171 30.2422 2.30715 30.4985 2.30715 30.7628C2.30715 31.027 2.2171 31.2834 2.05184 31.4895C1.71062 31.9451 1.52997 32.5009 1.53811 33.07Z" fill="#8E7FE2"></path><path d="M5.38344 30.7624C5.38344 30.9663 5.46447 31.1619 5.6087 31.3062C5.75292 31.4504 5.94854 31.5314 6.15251 31.5314C6.35647 31.5314 6.55209 31.4504 6.69632 31.3062C6.84054 31.1619 6.92157 30.9663 6.92157 30.7624C6.91414 30.4969 7.00508 30.2381 7.1769 30.0356C7.51078 29.5763 7.69062 29.023 7.69062 28.4552C7.69062 27.8873 7.51078 27.3341 7.1769 26.8747C7.00508 26.6723 6.91414 26.4134 6.92157 26.148C6.92157 25.944 6.84054 25.7484 6.69632 25.6042C6.55209 25.4599 6.35647 25.3789 6.15251 25.3789C5.94854 25.3789 5.75292 25.4599 5.6087 25.6042C5.46447 25.7484 5.38344 25.944 5.38344 26.148C5.3753 26.7171 5.55596 27.2728 5.89718 27.7284C6.06243 27.9346 6.15249 28.1909 6.15249 28.4552C6.15249 28.7194 6.06243 28.9757 5.89718 29.1819C5.55596 29.6375 5.3753 30.1932 5.38344 30.7624Z" fill="#8E7FE2"></path></g><defs><clipPath id="clip0_235_4046"><rect width="46.1438" height="46.1438" fill="white"></rect></clipPath></defs></svg>