<svg xmlns="http://www.w3.org/2000/svg" width="47" height="47" viewBox="0 0 47 47" fill="none"><g clip-path="url(#clip0_235_4053)"><path d="M19.5751 17.8088C18.7639 17.7457 18.1241 17.962 17.6554 18.3315C15.7087 17.2951 8.50775 13.4467 8.50775 13.4467C7.66058 13.0141 7.00267 14.2669 7.83182 14.7175L16.8353 19.5211C16.5108 20.4945 16.7451 21.6481 17.5473 22.351C16.3937 23.6308 13.6809 26.623 13.6809 26.623C13.059 27.3259 14.1045 28.2903 14.7534 27.5963L18.9442 22.9639C22.3509 23.3334 22.9908 18.2954 19.5751 17.8088ZM19.3137 21.5489C17.7726 21.585 17.7005 19.2778 19.2686 19.2327C20.7647 19.2778 20.8098 21.4408 19.3137 21.5489ZM18.5386 8.30062V6.65134C18.5567 5.70503 19.9626 5.70503 19.9806 6.65134V8.30062C19.9716 9.25594 18.5567 9.25594 18.5386 8.30062ZM7.10181 21.1794H5.45253C4.50622 21.1614 4.50622 19.7555 5.45253 19.7374H7.10181C8.05713 19.7555 8.05713 21.1704 7.10181 21.1794ZM39.1321 26.4968C40.2496 25.8749 40.4299 24.0905 39.2222 23.3785C39.6819 22.5854 40.3217 21.4768 40.3217 21.4768C41.2681 19.8005 39.9162 18.1242 38.3931 18.0791C37.2395 8.55297 29.0021 1.10867 19.2596 1.11768C-3.92944 1.77559 -6.92158 33.7608 14.9066 39.1323C14.7624 39.8442 14.9336 40.6283 15.4383 41.1781C14.2847 42.4488 14.8435 44.9453 17.1147 45.0174H28.7948C29.2815 45.0264 29.7231 44.8822 30.0746 44.6299C31.4174 44.8912 33.0307 45.0174 35.0044 45.0174C40.1505 45.0174 46.0537 44.2243 46.0537 38.0057C46.0537 34.6891 42.4847 30.0928 39.1321 26.4968ZM17.1056 37.3478C16.0692 37.3658 15.9611 35.7075 17.1056 35.6805H28.7858C29.9124 35.6895 29.8403 37.3658 28.7858 37.3478H17.1056ZM17.1056 34.2295C15.9791 34.2024 16.0422 32.5622 17.1056 32.5622C17.4121 32.5712 25.7846 32.5622 28.7858 32.5622C29.8853 32.5712 29.8583 34.2205 28.7858 34.2295H17.1056ZM27.0103 31.1202C23.7388 31.1202 17.1147 31.1202 17.1147 31.1202C14.8435 31.1923 14.2847 33.6887 15.4383 34.9595C15.4023 34.9955 15.3753 35.0406 15.3392 35.0857C-1.41497 30.4172 1.17161 5.70503 19.2596 5.1823C26.767 5.16428 33.0757 10.6529 34.2834 17.9169C33.8418 18.0521 33.4543 18.3135 33.1839 18.701C31.2822 16.9526 28.3983 19.2417 29.678 21.4859L30.7776 23.3785C29.6961 24.0634 29.624 25.8659 30.8767 26.4878C29.3446 28.137 28.0468 29.6872 27.0103 31.1202ZM35.6893 19.6113C35.8426 19.8276 35.8155 20.116 35.8245 20.3683V23.0991C34.5177 23.0991 33.274 23.0991 32.2826 23.0991L30.9308 20.7649C30.408 19.8276 31.796 19.0164 32.3457 19.9447L32.8324 20.7829C32.9946 21.0623 33.3281 21.2065 33.6435 21.1163C34.1482 20.9812 34.2113 20.5125 34.1752 20.0619C34.1662 19.2508 35.2567 18.9353 35.6893 19.6113ZM31.7509 25.2801C31.2011 25.2531 31.3003 24.4419 31.859 24.5411H38.2489C38.7265 24.5411 38.7356 25.2801 38.2489 25.2801C38.2489 25.2801 38.0236 25.2801 37.6631 25.2801C37.3657 25.2801 31.8681 25.2801 31.7509 25.2801ZM39.069 20.7558L37.7171 23.0901C37.2665 23.0901 36.5726 23.0901 35.8155 23.0901C35.8786 22.9819 37.2034 20.6837 37.645 19.9357C38.1317 19.0705 39.6098 19.7464 39.069 20.7558ZM19.2596 2.56869C28.3622 2.56869 36.0589 9.55335 36.9871 18.5478C36.924 18.5929 36.861 18.6469 36.8069 18.701C36.5455 18.3135 36.158 18.0701 35.7344 17.9169C34.5267 9.79669 27.5331 3.74031 19.2596 3.74031C-0.0721107 4.11883 -3.70413 31.021 14.8255 36.4556C14.8075 36.9242 14.9517 37.3658 15.195 37.7624C-5.21823 32.4811 -1.90164 3.10043 19.2596 2.56869ZM17.1056 40.4661C15.943 40.4391 16.0962 38.7718 17.1056 38.7898H28.7858C29.8853 38.7988 29.8583 40.4571 28.7858 40.4661H17.1056ZM17.1056 43.5754C16.0061 43.5574 16.0151 41.9261 17.1056 41.9081H28.7858C29.5248 41.8901 29.8763 42.8454 29.3716 43.3501C29.2364 43.4853 29.0472 43.5754 28.7858 43.5844C28.7948 43.5754 17.1056 43.5754 17.1056 43.5754ZM30.9938 43.3321C31.1831 42.575 31.0119 41.7819 30.4531 41.1871C31.2552 40.3579 31.2642 38.9069 30.4531 38.0688C31.2552 37.2396 31.2642 35.7976 30.4531 34.9505C31.814 33.5986 30.7595 31.0661 28.8038 31.1202C29.8583 29.7503 31.1471 28.2812 32.6341 26.7311H37.3566C48.7664 38.231 46.7026 45.0444 30.9938 43.3321ZM35.9147 34.9775C38.8077 35.0045 39.4205 39.0421 36.7077 39.9434V40.2768C36.6897 41.2231 35.2838 41.2231 35.2658 40.2768V39.9794C34.1752 39.691 33.3641 38.6997 33.3641 37.519C33.3822 36.5727 34.7881 36.5727 34.8061 37.519C34.8061 38.1319 35.3018 38.6276 35.9147 38.6276C37.3747 38.5915 37.3747 36.4465 35.9147 36.4105C32.8594 36.3204 32.4809 32.0755 35.2658 31.4086V31.1112C35.2838 30.1649 36.6897 30.1649 36.7077 31.1112V31.4536C37.645 31.742 38.4291 32.5441 38.4652 33.86C38.4472 34.8063 37.0412 34.8063 37.0232 33.86C37.0232 33.2471 36.5275 32.7514 35.9147 32.7514C34.4546 32.7965 34.4546 34.9415 35.9147 34.9775Z" fill="#8E7FE2"></path></g><defs><clipPath id="clip0_235_4053"><rect width="46.1438" height="46.1438" fill="white"></rect></clipPath></defs></svg>