<svg xmlns="http://www.w3.org/2000/svg" width="346" height="36" viewBox="0 0 346 36" fill="none"><g clip-path="url(#clip0_37_335)"><path d="M281.8 4.9043C275.011 4.9043 269.484 10.8563 269.484 18.1675C269.484 25.4788 275.011 31.4308 281.8 31.4308C288.589 31.4308 285.969 30.8335 287.785 29.742V31.4308H294.115V18.1675C294.115 10.8563 288.589 4.9043 281.8 4.9043ZM287.785 18.1675C287.785 21.7305 285.089 24.6138 281.8 24.6138C278.511 24.6138 275.814 21.7099 275.814 18.1675C275.814 14.6252 278.511 11.7213 281.8 11.7213C285.089 11.7213 287.785 14.6252 287.785 18.1675Z" fill="white"></path><path d="M309.548 4.9043C302.759 4.9043 297.232 10.8563 297.232 18.1675C297.232 25.4788 302.759 31.4308 309.548 31.4308C316.337 31.4308 313.717 30.8335 315.533 29.742V31.4308H321.863V18.1675C321.863 10.8563 316.337 4.9043 309.548 4.9043ZM315.533 18.1675C315.533 21.7305 312.837 24.6138 309.548 24.6138C306.259 24.6138 303.562 21.7099 303.562 18.1675C303.562 14.6252 306.259 11.7213 309.548 11.7213C312.837 11.7213 315.533 14.6252 315.533 18.1675Z" fill="white"></path><path d="M174.002 4.9043H167.672V31.4308H174.002V4.9043Z" fill="white"></path><path d="M194.063 21.6273C192.954 23.5015 191.06 24.6342 188.995 24.6342C185.687 24.6342 183.009 21.7303 183.009 18.1879C183.009 14.6456 185.706 11.7417 188.995 11.7417C192.284 11.7417 192.954 12.8538 194.063 14.7486L194.713 15.8401L200.048 12.1948L199.398 11.1032C197.122 7.25196 193.24 4.94531 188.995 4.94531C182.206 4.94531 176.68 10.8973 176.68 18.2085C176.68 25.5198 182.206 31.4718 188.995 31.4718C195.784 31.4718 197.122 29.1651 199.398 25.3138L200.048 24.2223L194.713 20.577L194.063 21.6685V21.6273Z" fill="white"></path><path d="M231.142 4.9043C224.353 4.9043 218.826 10.8563 218.826 18.1675C218.826 25.4788 224.353 31.4308 231.142 31.4308C237.93 31.4308 243.457 25.4788 243.457 18.1675C243.457 10.8563 237.93 4.9043 231.142 4.9043ZM237.127 18.1675C237.127 21.7305 234.431 24.6138 231.142 24.6138C227.852 24.6138 225.156 21.7099 225.156 18.1675C225.156 14.6252 227.852 11.7213 231.142 11.7213C234.431 11.7213 237.127 14.6252 237.127 18.1675Z" fill="white"></path><path d="M155.089 4.9043C152.928 4.9043 150.844 5.74869 149.199 7.25214C147.573 5.74869 145.489 4.9043 143.309 4.9043C138.318 4.9043 134.264 9.27045 134.264 14.6458V31.4308H140.593V14.6458C140.593 13.0188 141.817 11.7213 143.309 11.7213C144.801 11.7213 146.024 13.0394 146.024 14.6458V31.4308H152.354V14.6458C152.354 13.0188 153.578 11.7213 155.07 11.7213C156.561 11.7213 157.785 13.0394 157.785 14.6458V31.4308H164.115V14.6458C164.115 9.27045 160.061 4.9043 155.07 4.9043H155.089Z" fill="white"></path><path d="M203.547 18.0025V31.2657H209.877V18.0025C209.877 14.4395 212.573 11.5562 215.862 11.5562H217.067V4.73926H215.862C209.073 4.73926 203.547 10.6912 203.547 18.0025Z" fill="white"></path><path d="M259.235 14.7693H254.358C253.574 14.7693 252.943 14.0897 252.943 13.2453C252.943 12.4009 253.574 11.7213 254.358 11.7213H262.428V4.9043H254.358C250.094 4.9043 246.613 8.6526 246.613 13.2453C246.613 17.838 250.036 21.5245 254.263 21.5863H259.235C260.019 21.5863 260.65 22.2659 260.65 23.1103C260.65 23.9547 260.019 24.6344 259.235 24.6344H246.747V31.4514H259.235C263.499 31.4514 266.98 27.703 266.98 23.1103C266.98 18.5176 263.499 14.7693 259.235 14.7693Z" fill="white"></path><path d="M338.213 14.6043H333.337C332.553 14.6043 331.922 13.9247 331.922 13.0803C331.922 12.2359 332.553 11.5562 333.337 11.5562H341.407V4.73926H333.337C329.072 4.73926 325.592 8.48756 325.592 13.0803C325.592 17.673 329.015 21.3595 333.241 21.4213H338.213C338.997 21.4213 339.628 22.1009 339.628 22.9453C339.628 23.7897 338.997 24.4693 338.213 24.4693H325.726V31.2863H338.213C342.478 31.2863 345.958 27.538 345.958 22.9453C345.958 18.3526 342.478 14.6043 338.213 14.6043Z" fill="white"></path></g><path d="M112.255 1.6709H16.4572C8.4727 1.6709 2 8.63716 2 17.2305C2 25.8238 8.4727 32.7901 16.4572 32.7901L112.255 32.7901C120.239 32.7901 126.712 25.8238 126.712 17.2305C126.712 8.63716 120.239 1.6709 112.255 1.6709Z" stroke="#8E7FE2" stroke-width="3" stroke-miterlimit="10"></path><path d="M17.2444 11.0875L18.0529 10.069V17.062L17.6119 16.4425H23.5549V18.0175H17.6119L18.0529 17.398V24.4435L17.2444 23.425H24.7204V25H16.2574V9.5125H24.7204V11.0875H17.2444ZM31.2284 25.21C30.5564 25.21 29.9334 25.14 29.3594 25C28.7924 24.853 28.2954 24.643 27.8684 24.37C27.4484 24.09 27.1194 23.747 26.8814 23.341C26.6504 22.935 26.5349 22.4695 26.5349 21.9445C26.5349 21.8885 26.5349 21.8325 26.5349 21.7765C26.5349 21.7135 26.5349 21.661 26.5349 21.619H28.3304C28.3304 21.661 28.3304 21.696 28.3304 21.724C28.3304 21.752 28.3304 21.794 28.3304 21.85C28.3304 22.417 28.5929 22.851 29.1179 23.152C29.6429 23.446 30.3604 23.593 31.2704 23.593C31.8304 23.593 32.3309 23.537 32.7719 23.425C33.2129 23.313 33.5594 23.1415 33.8114 22.9105C34.0704 22.6795 34.1999 22.389 34.1999 22.039C34.1999 21.458 33.9269 21.045 33.3809 20.8C32.8419 20.548 32.0334 20.331 30.9554 20.149C30.3884 20.051 29.8494 19.925 29.3384 19.771C28.8274 19.61 28.3724 19.4035 27.9734 19.1515C27.5814 18.8995 27.2699 18.588 27.0389 18.217C26.8149 17.839 26.7029 17.3875 26.7029 16.8625C26.7029 16.1835 26.9024 15.6095 27.3014 15.1405C27.7074 14.6645 28.2534 14.304 28.9394 14.059C29.6254 13.807 30.3884 13.681 31.2284 13.681C32.0404 13.681 32.7894 13.8105 33.4754 14.0695C34.1614 14.3285 34.7109 14.7065 35.1239 15.2035C35.5439 15.6935 35.7539 16.299 35.7539 17.02C35.7539 17.048 35.7539 17.083 35.7539 17.125C35.7539 17.16 35.7539 17.195 35.7539 17.23H33.9689C33.9689 17.195 33.9689 17.167 33.9689 17.146C33.9689 17.125 33.9689 17.1005 33.9689 17.0725C33.9689 16.6665 33.8394 16.334 33.5804 16.075C33.3214 15.809 32.9854 15.613 32.5724 15.487C32.1594 15.354 31.7184 15.2875 31.2494 15.2875C30.8084 15.2875 30.3744 15.3365 29.9474 15.4345C29.5204 15.5255 29.1669 15.6795 28.8869 15.8965C28.6069 16.1135 28.4669 16.411 28.4669 16.789C28.4669 17.167 28.5964 17.4715 28.8554 17.7025C29.1214 17.9265 29.4924 18.112 29.9684 18.259C30.4514 18.399 31.0184 18.5285 31.6694 18.6475C32.2504 18.7525 32.7999 18.8855 33.3179 19.0465C33.8359 19.2005 34.2909 19.4 34.6829 19.645C35.0819 19.89 35.3934 20.2015 35.6174 20.5795C35.8484 20.9505 35.9639 21.4055 35.9639 21.9445C35.9639 22.4905 35.8379 22.9665 35.5859 23.3725C35.3409 23.7785 34.9979 24.118 34.5569 24.391C34.1229 24.664 33.6189 24.867 33.0449 25C32.4779 25.14 31.8724 25.21 31.2284 25.21ZM44.0289 25.21C42.9649 25.21 41.9989 24.979 41.1309 24.517C40.2629 24.048 39.5734 23.3795 39.0624 22.5115C38.5584 21.6435 38.3064 20.611 38.3064 19.414C38.3064 18.217 38.5584 17.1915 39.0624 16.3375C39.5734 15.4765 40.2629 14.8185 41.1309 14.3635C41.9989 13.9085 42.9649 13.681 44.0289 13.681C44.8409 13.681 45.5654 13.807 46.2024 14.059C46.8394 14.304 47.3784 14.633 47.8194 15.046C48.2604 15.459 48.5964 15.914 48.8274 16.411C49.0654 16.901 49.1844 17.391 49.1844 17.881C49.1844 17.888 49.1844 17.8985 49.1844 17.9125C49.1844 17.9265 49.1844 17.9405 49.1844 17.9545H47.4099C47.4099 17.9195 47.4064 17.881 47.3994 17.839C47.3924 17.79 47.3854 17.741 47.3784 17.692C47.3224 17.223 47.1439 16.8135 46.8429 16.4635C46.5419 16.1065 46.1499 15.8265 45.6669 15.6235C45.1839 15.4205 44.6344 15.319 44.0184 15.319C43.3254 15.319 42.6814 15.4695 42.0864 15.7705C41.4984 16.0645 41.0224 16.516 40.6584 17.125C40.3014 17.727 40.1229 18.49 40.1229 19.414C40.1229 20.331 40.3014 21.0975 40.6584 21.7135C41.0154 22.3295 41.4879 22.795 42.0759 23.11C42.6709 23.418 43.3184 23.572 44.0184 23.572C44.7744 23.572 45.3974 23.453 45.8874 23.215C46.3774 22.977 46.7449 22.662 46.9899 22.27C47.2419 21.871 47.3819 21.444 47.4099 20.989H49.1844C49.1844 21.493 49.0724 21.997 48.8484 22.501C48.6244 22.998 48.2954 23.453 47.8614 23.866C47.4274 24.272 46.8884 24.5975 46.2444 24.8425C45.6074 25.0875 44.8689 25.21 44.0289 25.21ZM57.2459 25.1995C56.1259 25.1995 55.1354 24.951 54.2744 24.454C53.4204 23.95 52.7484 23.264 52.2584 22.396C51.7754 21.521 51.5339 20.527 51.5339 19.414C51.5339 18.301 51.7754 17.314 52.2584 16.453C52.7484 15.592 53.4204 14.9165 54.2744 14.4265C55.1354 13.9365 56.1259 13.6915 57.2459 13.6915C58.3659 13.6915 59.3529 13.9365 60.2069 14.4265C61.0679 14.9165 61.7399 15.592 62.2229 16.453C62.7129 17.314 62.9579 18.301 62.9579 19.414C62.9579 20.527 62.7129 21.521 62.2229 22.396C61.7399 23.264 61.0679 23.95 60.2069 24.454C59.3529 24.951 58.3659 25.1995 57.2459 25.1995ZM57.2459 23.5615C58.0159 23.5615 58.6949 23.39 59.2829 23.047C59.8709 22.704 60.3294 22.221 60.6584 21.598C60.9944 20.975 61.1624 20.247 61.1624 19.414C61.1624 18.581 60.9944 17.86 60.6584 17.251C60.3294 16.635 59.8709 16.1625 59.2829 15.8335C58.6949 15.4975 58.0159 15.3295 57.2459 15.3295C56.4829 15.3295 55.8039 15.4975 55.2089 15.8335C54.6209 16.1625 54.1589 16.635 53.8229 17.251C53.4939 17.86 53.3294 18.581 53.3294 19.414C53.3294 20.247 53.4939 20.975 53.8229 21.598C54.1589 22.221 54.6209 22.704 55.2089 23.047C55.8039 23.39 56.4829 23.5615 57.2459 23.5615ZM67.6672 8.5885V25H65.9032V8.5885H67.6672ZM74.8296 25.21C73.9826 25.21 73.2406 25.077 72.6036 24.811C71.9736 24.545 71.4836 24.1635 71.1336 23.6665C70.7836 23.1625 70.6086 22.5605 70.6086 21.8605C70.6086 21.1325 70.7976 20.527 71.1756 20.044C71.5536 19.554 72.0856 19.1725 72.7716 18.8995C73.4576 18.6265 74.2556 18.4445 75.1656 18.3535C76.5376 18.2135 77.5141 18.077 78.0951 17.944C78.6761 17.804 78.9666 17.58 78.9666 17.272C78.9666 17.265 78.9666 17.2615 78.9666 17.2615C78.9666 17.2545 78.9666 17.2475 78.9666 17.2405C78.9666 16.5965 78.7041 16.117 78.1791 15.802C77.6541 15.48 76.8946 15.319 75.9006 15.319C74.8646 15.319 74.0596 15.501 73.4856 15.865C72.9116 16.222 72.6246 16.803 72.6246 17.608H70.8606C70.8606 16.775 71.0741 16.068 71.5011 15.487C71.9281 14.899 72.5196 14.451 73.2756 14.143C74.0386 13.835 74.9171 13.681 75.9111 13.681C76.8211 13.681 77.6401 13.821 78.3681 14.101C79.1031 14.374 79.6841 14.7835 80.1111 15.3295C80.5451 15.8685 80.7621 16.537 80.7621 17.335C80.7621 17.482 80.7621 17.629 80.7621 17.776C80.7621 17.916 80.7621 18.0595 80.7621 18.2065V22.9C80.7621 23.145 80.7726 23.383 80.7936 23.614C80.8146 23.845 80.8496 24.048 80.8986 24.223C80.9616 24.433 81.0316 24.6045 81.1086 24.7375C81.1856 24.8635 81.2486 24.951 81.2976 25H79.5021C79.4671 24.965 79.4146 24.8845 79.3446 24.7585C79.2746 24.6255 79.2081 24.4715 79.1451 24.2965C79.0961 24.1565 79.0576 23.9815 79.0296 23.7715C79.0016 23.5545 78.9876 23.3305 78.9876 23.0995L79.2816 23.299C79.0646 23.677 78.7461 24.0095 78.3261 24.2965C77.9131 24.5835 77.4126 24.8075 76.8246 24.9685C76.2366 25.1295 75.5716 25.21 74.8296 25.21ZM75.1131 23.6035C75.8341 23.6035 76.4851 23.495 77.0661 23.278C77.6471 23.054 78.1091 22.725 78.4521 22.291C78.7951 21.857 78.9666 21.318 78.9666 20.674V18.4585L79.3656 19.1305C78.9176 19.3055 78.3576 19.449 77.6856 19.561C77.0206 19.666 76.3241 19.7535 75.5961 19.8235C74.5391 19.9215 73.7411 20.107 73.2021 20.38C72.6701 20.653 72.4041 21.1115 72.4041 21.7555C72.4041 22.3645 72.6246 22.8265 73.0656 23.1415C73.5066 23.4495 74.1891 23.6035 75.1131 23.6035ZM93.58 25.21C92.663 25.21 91.823 24.9895 91.06 24.5485C90.297 24.1005 89.688 23.446 89.233 22.585C88.778 21.717 88.5505 20.66 88.5505 19.414C88.5505 18.189 88.7815 17.1495 89.2435 16.2955C89.7055 15.4415 90.318 14.794 91.081 14.353C91.844 13.905 92.677 13.681 93.58 13.681C94.441 13.681 95.246 13.8875 95.995 14.3005C96.751 14.7065 97.36 15.2735 97.822 16.0015C98.284 16.7295 98.515 17.573 98.515 18.532C98.515 18.553 98.515 18.574 98.515 18.595C98.515 18.616 98.515 18.637 98.515 18.658L97.234 18.7105C97.234 18.6895 97.234 18.6685 97.234 18.6475C97.234 18.6195 97.234 18.595 97.234 18.574C97.234 17.965 97.073 17.4155 96.751 16.9255C96.436 16.4355 96.0195 16.047 95.5015 15.76C94.9835 15.466 94.427 15.319 93.832 15.319C92.838 15.319 92.0155 15.655 91.3645 16.327C90.7135 16.992 90.388 18.021 90.388 19.414C90.388 20.8 90.7135 21.8325 91.3645 22.5115C92.0225 23.1835 92.845 23.5195 93.832 23.5195C94.455 23.5195 95.022 23.369 95.533 23.068C96.051 22.767 96.464 22.3645 96.772 21.8605C97.08 21.3495 97.234 20.779 97.234 20.149L98.515 20.1805C98.515 21.1325 98.2945 21.99 97.8535 22.753C97.4125 23.509 96.8175 24.1075 96.0685 24.5485C95.3265 24.9895 94.497 25.21 93.58 25.21ZM97.234 25V8.5885H99.0295V25H97.234ZM102.745 20.1385V18.5425H111.366L111.051 19.0675C111.051 19.0255 111.051 18.987 111.051 18.952C111.051 18.91 111.051 18.8715 111.051 18.8365C111.051 18.1925 110.914 17.6045 110.641 17.0725C110.375 16.5335 109.976 16.103 109.444 15.781C108.912 15.459 108.254 15.298 107.47 15.298C106.679 15.298 105.983 15.466 105.381 15.802C104.779 16.138 104.31 16.614 103.974 17.23C103.638 17.839 103.47 18.567 103.47 19.414C103.47 20.275 103.631 21.017 103.953 21.64C104.282 22.263 104.747 22.7425 105.349 23.0785C105.951 23.4145 106.665 23.5825 107.491 23.5825C108.079 23.5825 108.59 23.523 109.024 23.404C109.458 23.278 109.815 23.1135 110.095 22.9105C110.382 22.7005 110.599 22.473 110.746 22.228C110.893 21.983 110.981 21.738 111.009 21.493H112.794C112.759 21.941 112.619 22.3855 112.374 22.8265C112.129 23.2675 111.782 23.67 111.334 24.034C110.886 24.391 110.337 24.678 109.686 24.895C109.035 25.112 108.286 25.2205 107.439 25.2205C106.319 25.2205 105.332 24.9755 104.478 24.4855C103.624 23.9955 102.952 23.3165 102.462 22.4485C101.979 21.5805 101.737 20.583 101.737 19.456C101.737 18.315 101.982 17.314 102.472 16.453C102.962 15.585 103.638 14.906 104.499 14.416C105.36 13.926 106.343 13.681 107.449 13.681C108.576 13.681 109.553 13.926 110.379 14.416C111.205 14.906 111.842 15.578 112.29 16.432C112.738 17.279 112.962 18.245 112.962 19.33C112.962 19.442 112.958 19.589 112.951 19.771C112.944 19.953 112.934 20.0755 112.92 20.1385H102.745Z" fill="white"></path><defs><clipPath id="clip0_37_335"><rect width="301" height="33.3846" fill="white" transform="translate(44.959 0.538086)"></rect></clipPath></defs></svg>