<svg xmlns="http://www.w3.org/2000/svg" width="145" height="99" viewBox="0 0 145 99" fill="none"><g id="logo" clip-path="url(#clip0_15_2602)"><path id="Vector" d="M96.6973 36.6233C99.7036 39.3636 101.808 41.6103 104.252 43.4025C108.147 46.2597 113.467 45.6103 116.748 42.1818C120.277 38.5064 120.682 33.0129 117.623 29.1947C116.565 27.8701 115.258 26.7532 114.16 25.4545C112.853 23.909 113.036 22.0389 114.487 20.5064C115.781 19.1428 117.82 18.8831 119.297 20.0779C125.244 24.948 128.446 30.9869 126.904 38.8181C125.623 45.3246 121.492 49.5714 115.323 51.6233C108.552 53.8831 102.344 52.4155 97.1418 47.4934C95.3772 45.8311 93.8479 43.922 92.1096 41.9999C89.6 44.5064 87.5348 46.5454 85.4958 48.6233C80.725 53.4675 74.9347 55.4675 68.334 53.7792C65.4715 53.0519 62.6483 51.4415 60.3086 49.6233C57.603 47.5324 55.4332 44.7532 52.5185 41.7402C50.9108 43.6103 49.6299 45.1947 48.2444 46.6623C41.3561 53.9869 29.8801 54.6233 23.0311 48.0779C15.5416 40.922 15.4109 29.948 22.7304 22.4675C23.397 21.7921 24.0375 21.0779 24.7433 20.4415C26.3641 19.0129 28.6776 19.0519 30.1154 20.4934C31.5662 21.935 31.5793 24.2077 30.1154 25.8181C29.2919 26.7272 28.3639 27.5194 27.5404 28.4285C23.8676 32.5064 24.0114 38.2207 27.8411 42.1818C31.4355 45.883 37.2258 46.1688 41.3823 42.6753C43.5128 40.8831 45.4342 38.8441 47.4079 36.8831C53.4988 30.8571 59.5636 24.8051 65.6414 18.7532C65.9813 18.4155 66.2427 18.0259 66.857 17.2857C63.7593 14.4805 60.9229 11.3246 57.5246 8.96097C53.7602 6.36357 48.9633 7.32461 45.5126 10.5973C44.2317 11.8181 42.99 13.0779 41.7221 14.3116C39.9707 16.0129 37.6964 16.1168 36.0625 14.5714C34.5463 13.1428 34.5333 10.7792 36.2324 9.12981C39.7223 5.72721 42.9115 1.90903 48.0222 0.688247C54.6752 -0.909156 60.4655 0.584351 65.3408 5.37656C67.5759 7.57136 69.6933 9.85708 72.033 12.2727C72.9479 11.4415 73.6407 10.8311 74.3204 10.2077C77.026 7.74019 79.4833 4.89604 82.5026 2.87007C89.3386 -1.72734 97.6777 -0.753311 104.174 4.98695C105.651 6.28565 107.049 7.68825 108.422 9.10383C110.029 10.7662 110.056 13.0779 108.552 14.5584C106.932 16.1688 104.749 16.0779 102.932 14.3246C101.664 13.0908 100.422 11.8311 99.1285 10.6363C94.6453 6.50643 88.9987 6.46747 84.6593 10.7012C76.477 18.6753 68.3732 26.7402 60.2433 34.7662C59.5766 35.4285 58.9493 36.1168 58.0343 37.0779C61.1451 39.935 63.9161 42.9869 67.1838 45.3506C70.9873 48.1038 75.5882 47.5324 79.1827 44.1038C84.803 38.7662 90.2012 33.2077 95.704 27.7402C96.5274 26.922 97.3509 26.1168 98.2136 25.3376C100.2 23.5064 102.318 23.4805 103.991 25.2467C105.507 26.8441 105.415 28.8571 103.546 30.6233C101.468 32.5714 99.2592 34.3766 96.7366 36.5714L96.6973 36.6233Z" fill="#8E7FE2"></path><g id="Group"><path id="Vector_2" d="M100.839 64.2468C96.1993 64.2468 92.4219 68.0001 92.4219 72.6105C92.4219 77.2208 96.1993 80.9741 100.839 80.9741C105.479 80.9741 103.689 80.5975 104.931 79.9092V80.9741H109.257V72.6105C109.257 68.0001 105.479 64.2468 100.839 64.2468ZM104.931 72.6105C104.931 74.8572 103.088 76.6754 100.839 76.6754C98.5912 76.6754 96.7483 74.8442 96.7483 72.6105C96.7483 70.3767 98.5912 68.5455 100.839 68.5455C103.088 68.5455 104.931 70.3767 104.931 72.6105Z" fill="white"></path><path id="Vector_3" d="M119.806 64.2468C115.166 64.2468 111.389 68.0001 111.389 72.6105C111.389 77.2208 115.166 80.9741 119.806 80.9741C124.446 80.9741 122.656 80.5975 123.897 79.9092V80.9741H128.224V72.6105C128.224 68.0001 124.446 64.2468 119.806 64.2468ZM123.897 72.6105C123.897 74.8572 122.054 76.6754 119.806 76.6754C117.558 76.6754 115.715 74.8442 115.715 72.6105C115.715 70.3767 117.558 68.5455 119.806 68.5455C122.054 68.5455 123.897 70.3767 123.897 72.6105Z" fill="white"></path><path id="Vector_4" d="M27.1604 64.2468H22.834V80.9741H27.1604V64.2468Z" fill="white"></path><path id="Vector_5" d="M40.8715 74.7922C40.1134 75.974 38.8194 76.6883 37.4077 76.6883C35.1465 76.6883 33.3166 74.8571 33.3166 72.6234C33.3166 70.3896 35.1596 68.5584 37.4077 68.5584C39.6559 68.5584 40.1134 69.2597 40.8715 70.4545L41.3159 71.1428L44.9626 68.8441L44.5182 68.1558C42.9628 65.7272 40.3094 64.2727 37.4077 64.2727C32.7677 64.2727 28.9902 68.026 28.9902 72.6363C28.9902 77.2467 32.7677 81 37.4077 81C42.0478 81 42.9628 79.5454 44.5182 77.1169L44.9626 76.4285L41.3159 74.1298L40.8715 74.8182V74.7922Z" fill="white"></path><path id="Vector_6" d="M66.2163 64.2468C61.5763 64.2468 57.7988 68.0001 57.7988 72.6105C57.7988 77.2208 61.5763 80.9741 66.2163 80.9741C70.8564 80.9741 74.6338 77.2208 74.6338 72.6105C74.6338 68.0001 70.8564 64.2468 66.2163 64.2468ZM70.3075 72.6105C70.3075 74.8572 68.4645 76.6754 66.2163 76.6754C63.9682 76.6754 62.1252 74.8442 62.1252 72.6105C62.1252 70.3767 63.9682 68.5455 66.2163 68.5455C68.4645 68.5455 70.3075 70.3767 70.3075 72.6105Z" fill="white"></path><path id="Vector_7" d="M14.234 64.2468C12.757 64.2468 11.3323 64.7793 10.2082 65.7273C9.09719 64.7793 7.67248 64.2468 6.18243 64.2468C2.77098 64.2468 0 67.0001 0 70.3897V80.9741H4.32639V70.3897C4.32639 69.3637 5.16291 68.5455 6.18243 68.5455C7.20194 68.5455 8.03846 69.3767 8.03846 70.3897V80.9741H12.3649V70.3897C12.3649 69.3637 13.2014 68.5455 14.2209 68.5455C15.2404 68.5455 16.0769 69.3767 16.0769 70.3897V80.9741H20.4033V70.3897C20.4033 67.0001 17.6323 64.2468 14.2209 64.2468H14.234Z" fill="white"></path><path id="Vector_8" d="M47.3555 72.5065V80.8701H51.6819V72.5065C51.6819 70.2597 53.5248 68.4415 55.773 68.4415H56.5964V64.1428H55.773C51.1329 64.1428 47.3555 67.8961 47.3555 72.5065Z" fill="white"></path><path id="Vector_9" d="M85.4177 70.4676H82.0846C81.5487 70.4676 81.1174 70.039 81.1174 69.5066C81.1174 68.9741 81.5487 68.5455 82.0846 68.5455H87.6005V64.2468H82.0846C79.1699 64.2468 76.791 66.6105 76.791 69.5066C76.791 72.4027 79.1307 74.7273 82.0193 74.7663H85.4177C85.9536 74.7663 86.3849 75.1949 86.3849 75.7273C86.3849 76.2598 85.9536 76.6884 85.4177 76.6884H76.8825V80.9871H85.4177C88.3324 80.9871 90.7113 78.6234 90.7113 75.7273C90.7113 72.8312 88.3324 70.4676 85.4177 70.4676Z" fill="white"></path><path id="Vector_10" d="M139.398 70.3636H136.065C135.529 70.3636 135.098 69.935 135.098 69.4026C135.098 68.8701 135.529 68.4415 136.065 68.4415H141.581V64.1428H136.065C133.15 64.1428 130.771 66.5065 130.771 69.4026C130.771 72.2987 133.111 74.6233 136 74.6623H139.398C139.934 74.6623 140.365 75.0909 140.365 75.6233C140.365 76.1558 139.934 76.5844 139.398 76.5844H130.863V80.8831H139.398C142.313 80.8831 144.692 78.5194 144.692 75.6233C144.692 72.7272 142.313 70.3636 139.398 70.3636Z" fill="white"></path></g><path id="Vector_11" d="M137.543 84.7793H100.749C96.8006 84.7793 93.5996 87.9598 93.5996 91.8832C93.5996 95.8066 96.8006 98.9871 100.749 98.9871H137.543C141.492 98.9871 144.693 95.8066 144.693 91.8832C144.693 87.9598 141.492 84.7793 137.543 84.7793Z" fill="white"></path><path id="Vector_12" d="M130.655 89.7014C129.91 89.7014 129.23 89.9741 128.707 90.4157V88.0391H127.648V92.6884C127.648 94.3378 128.995 95.6754 130.655 95.6754C132.315 95.6754 133.661 94.3378 133.661 92.6884C133.661 91.0391 132.315 89.7014 130.655 89.7014ZM130.655 94.6105C129.583 94.6105 128.707 93.7404 128.707 92.6754C128.707 91.6105 129.583 90.7404 130.655 90.7404C131.726 90.7404 132.602 91.6105 132.602 92.6754C132.602 93.7404 131.726 94.6105 130.655 94.6105Z" fill="#745AF8"></path><path id="Vector_13" d="M105.991 94.6235C104.919 94.6235 104.043 93.7534 104.043 92.6884C104.043 91.6235 104.919 90.7534 105.991 90.7534C107.062 90.7534 107.272 91.091 107.638 91.6495L108.526 91.091C107.977 90.2209 107.023 89.7014 105.991 89.7014C104.331 89.7014 102.984 91.0391 102.984 92.6884C102.984 94.3378 104.331 95.6754 105.991 95.6754C107.651 95.6754 107.977 95.156 108.526 94.2858L107.638 93.7274C107.285 94.2858 106.67 94.6235 105.991 94.6235Z" fill="#745AF8"></path><path id="Vector_14" d="M112.172 95.6754C113.832 95.6754 115.179 94.3378 115.179 92.6884C115.179 91.0391 113.832 89.7014 112.172 89.7014C110.512 89.7014 109.166 91.0391 109.166 92.6884C109.166 94.3378 110.512 95.6754 112.172 95.6754ZM112.172 90.7664C113.244 90.7664 114.12 91.6365 114.12 92.7014C114.12 93.7663 113.244 94.6365 112.172 94.6365C111.1 94.6365 110.225 93.7663 110.225 92.7014C110.225 91.6365 111.1 90.7664 112.172 90.7664Z" fill="#745AF8"></path><path id="Vector_15" d="M121.44 89.7014C120.812 89.7014 120.237 89.9741 119.845 90.4157C119.453 89.9741 118.891 89.7014 118.25 89.7014C117.087 89.7014 116.133 90.6495 116.133 91.8053V95.6625H117.192V91.8053C117.192 91.2209 117.662 90.7534 118.25 90.7534C118.838 90.7534 119.309 91.2209 119.309 91.8053V95.6625H120.368V91.8053C120.368 91.2209 120.838 90.7534 121.426 90.7534C122.015 90.7534 122.485 91.2209 122.485 91.8053V95.6625H123.544V91.8053C123.544 90.6495 122.59 89.7014 121.426 89.7014H121.44Z" fill="#745AF8"></path><path id="Vector_16" d="M135.727 92.6884C135.727 91.6235 136.602 90.7534 137.674 90.7534V89.7014C136.014 89.7014 134.668 91.0391 134.668 92.6884V95.6754H135.727V92.6884Z" fill="#745AF8"></path><path id="Vector_17" d="M101.349 95.6623C101.732 95.6623 102.042 95.3541 102.042 94.974C102.042 94.5938 101.732 94.2856 101.349 94.2856C100.966 94.2856 100.656 94.5938 100.656 94.974C100.656 95.3541 100.966 95.6623 101.349 95.6623Z" fill="#745AF8"></path><path id="Vector_18" d="M126.054 95.6623C126.437 95.6623 126.747 95.3541 126.747 94.974C126.747 94.5938 126.437 94.2856 126.054 94.2856C125.671 94.2856 125.361 94.5938 125.361 94.974C125.361 95.3541 125.671 95.6623 126.054 95.6623Z" fill="#745AF8"></path></g><defs><clipPath id="clip0_15_2602"><rect width="144.692" height="99" fill="white"></rect></clipPath></defs></svg>